# xmcd
# Track frame offsets:
# 150
# 12767
# 30198
# 46593
# 62967
# 77040
# 90852
# 106848
# 121686
# 140055
#
# Disc length: 2092 seconds
# Revision: 0
# Processed by: cddbd v1.4PL0 Copyright (c) Steve Scherf et al.
# Submitted via: VisiTrax 2.9.5.180 - For more info visit www.synapsa.com
#
DISCID=68082a0a
DTITLE=Randy Hopper - Nothing to hide
DYEAR=2000
DGENRE=
TTITLE0=Let's fall in love
TTITLE1=I love countr life
TTITLE2=Carolina
TTITLE3=Crazy about you
TTITLE4=Time we say good bye
TTITLE5=Lookin' at love
TTITLE6=Rain on you
TTITLE7=Extraordinary girl
TTITLE8=I think about you
TTITLE9=Peace
EXTD=
EXTT0=
EXTT1=
EXTT2=
EXTT3=
EXTT4=
EXTT5=
EXTT6=
EXTT7=
EXTT8=
EXTT9=
PLAYORDER=
